# xmcd
#
# Track frame offsets:
#	150
#	16149
#	31802
#	53166
#	68629
#	88589
#	107320
#	126331
#	142955
#	161407
#	180305
#	200544
#	217795
#	236408
#	249904
#
# Disc length: 3570 seconds
#
# Revision: 1
# Processed by: cddbd v1.5.2PL0 Copyright (c) Steve Scherf et al.
# Submitted via: audiograbber 1.83.01
#
DISCID=b20df00f
DTITLE=Chartbuster Country Monthly, April 2007 - CB60362
DYEAR=2007
DGENRE=Karaoke
TTITLE0=Toby Keith - High Maintenance Woman
TTITLE1=Montgomery Gentry - Lucky Man
TTITLE2=Dixie Chicks - The Long Way Around
TTITLE3=Jason Aldean - Johnny Cash
TTITLE4=Randy Rogers Band - One More Goodbye
TTITLE5=Kellie Pickler - I Wonder
TTITLE6=Dusty Duke - Say Yes
TTITLE7=Sarah Buxton - That Kind Of Day
TTITLE8=Jamie Slocum - Say Hello To Heaven
TTITLE9=Little Big Town - A Little More You
TTITLE10=Kristina Cornell - Little Red Baloon
TTITLE11=Big and Rich - Lost In This Moment
TTITLE12=Kenny Rogers feat Don Henley - Calling Me
TTITLE13=Katrina Elam - Flat On The Floor
TTITLE14=Lance Miller - She Really Loves Me
EXTD=
EXTT0=
EXTT1=
EXTT2=
EXTT3=
EXTT4=
EXTT5=
EXTT6=
EXTT7=
EXTT8=
EXTT9=
EXTT10=
EXTT11=
EXTT12=
EXTT13=
EXTT14=
PLAYORDER=
